# xmcd
#
# Track frame offsets:
#  150
#  11977
#  21155
#  33722
#  44175
#  54635
#  73720
#  87307
#  101565
#  111355
#  122667
#  133392
#  139940
#  152720
#  163767
#  173702
#  191617
#
# Disc length: 2722 seconds
#
# Revision: 0
# Processed by: cddbd v1.5.2PL0 Copyright (c) Steve Scherf et al.
# Submitted via: Collectorz.com_Music_Collector 6.11
#
DISCID=020aa011
DTITLE=Eric Clapton - The Early Clapton Collection
DYEAR=1995
DGENRE=Blues
TTITLE0=Eric Clapton and The Yardbirds - Got To Hurry
TTITLE1=Eric Clapton and The Yardbirds - I Ain't Got You
TTITLE2=Eric Clapton and The Yardbirds - Good Morning Little Schoolgirl
TTITLE3=Eric Clapton and The Yardbirds - Let It Rock
TTITLE4=Eric Clapton and The Yardbirds - A Certain Girl
TTITLE5=Eric Clapton and The Yardbirds - Take It Easy Baby (Live)
TTITLE6=Eric Clapton and The Yardbirds - Too Much Monkey Business (Live)
TTITLE7=Eric Clapton with The Immediate All-Stars - Draggin' My Tail
TTITLE8=Eric Clapton with The Immediate All-Stars - Tribute To Elmore
TTITLE9=Eric Clapton with The Immediate All-Stars - Snake Drive
TTITLE10=Eric Clapton with The Immediate All-Stars - West Coast Idea
TTITLE11=Eric Clapton with The Immediate All-Stars - Choker
TTITLE12=Eric Clapton with The Immediate All-Stars - Freight Loader
TTITLE13=Eric Clapton with The Immediate All-Stars - Miles Road
TTITLE14=Eric Clapton with John Mayall's Bluesbreakers - I'm Your Witchdoctor
TTITLE15=Eric Clapton with John Mayall's Bluesbreakers - Telephone Blues
TTITLE16=Eric Clapton with John Mayall's Bluesbreakers - On Top Of The World
EXTD=
EXTT0=
EXTT1=
EXTT2=
EXTT3=
EXTT4=
EXTT5=
EXTT6=
EXTT7=
EXTT8=
EXTT9=
EXTT10=
EXTT11=
EXTT12=
EXTT13=
EXTT14=
EXTT15=
EXTT16=
PLAYORDER=
